Coordinates
version=1
nRows=11
nColumns=36
inDegrees=yes

Units are S.I. units (second, meters, Newtons, ...)
If the header above contains a line with 'inDegrees', this indicates whether rotational values are in degrees (yes) or radians (no).

endheader
time	pelvis_tilt	pelvis_list	pelvis_rotation	pelvis_tx	pelvis_ty	pelvis_tz	hip_flexion_r	hip_adduction_r	hip_rotation_r	knee_angle_r	knee_angle_r_beta	ankle_angle_r	subtalar_angle_r	mtp_angle_r	hip_flexion_l	hip_adduction_l	hip_rotation_l	knee_angle_l	knee_angle_l_beta	ankle_angle_l	subtalar_angle_l	mtp_angle_l	lumbar_extension	lumbar_bending	lumbar_rotation	arm_flex_r	arm_add_r	arm_rot_r	elbow_flex_r	pro_sup_r	arm_flex_l	arm_add_l	arm_rot_l	elbow_flex_l	pro_sup_l
      1.95000000	     -3.43556155	      0.40520148	     -0.28088594	      0.34744263	      0.95832824	     -0.04948844	     -1.44624010	     -7.65058636	     -5.15048848	      0.57913509	      0.01010781	      0.74455654	    -11.10494817	     -7.49999987	      1.28832441	     -3.89266828	      1.30617575	      1.21371838	      0.02118338	     -1.23365599	    -11.89297359	     -7.49999987	      1.19953045	     -3.67198828	      9.33407169	    -43.15389194	    -73.68015423	   -112.85380255	     41.07346934	     72.47355456	     22.78043367	    -28.23043362	    -46.32313487	     35.41970953	     90.39469953
      1.96666670	     -3.44344240	      0.39955410	     -0.28402356	      0.34763284	      0.96115177	     -0.04974180	     -1.42400408	     -7.63905290	     -5.24787691	      0.57983244	      0.01011999	      0.66677081	    -11.02158264	     -7.49999987	      1.31467913	     -3.92497632	      1.45625249	      1.20550761	      0.02104008	     -1.39669349	    -12.11106956	     -7.49999987	      1.09316431	     -3.68690145	      9.88930637	    -49.77204721	    -73.62285403	   -118.89670778	     40.82298144	     74.45419343	     23.18989215	    -27.75999043	    -47.18633885	     35.94143881	     94.20165281
      1.98333330	     -3.46729523	      0.40050297	     -0.31143901	      0.34749163	      0.95810928	     -0.04941116	     -1.37393705	     -7.62687699	     -4.97684381	      0.58229905	      0.01016304	      0.42471291	    -11.52605781	     -7.49999987	      1.34769699	     -3.92323357	      1.35525713	      1.23358818	      0.02153018	     -1.31555746	    -12.00199913	     -7.49999987	      1.22925258	     -3.65539618	      9.07937609	    -49.66084256	    -75.25213624	   -118.93252980	     41.60975829	     70.12306301	     21.88303418	    -28.95822161	    -44.45196427	     35.88757900	     87.83263384
      2.00000000	     -3.55923271	      0.37008392	     -0.30535907	      0.35196130	      0.95805219	     -0.04537029	     -1.31506918	     -7.51289374	     -5.08439147	      0.58565105	      0.01022154	      0.48447081	    -11.29981909	     -7.49999987	      1.41119431	     -4.03453163	      1.32692728	      1.25430168	      0.02189169	     -1.30097437	    -11.86781159	     -7.49999987	      1.55184622	     -3.75455451	      8.58748275	    -50.58589716	    -76.56859170	   -120.52366212	     41.50962479	     70.48963886	     21.31743630	    -29.34361627	    -45.69008379	     36.19581583	     88.16471030
      2.01666670	     -3.42464298	      0.32697278	     -0.30798886	      0.35186723	      0.95501426	     -0.04500462	     -1.52351551	     -7.38358966	     -5.11300771	      0.58664149	      0.01023883	      0.54170003	    -11.43515277	     -7.49999987	      1.20605385	     -4.15229213	      1.33122715	      1.21893628	      0.02127445	     -1.23500224	    -11.98874828	     -7.49999987	      1.00246598	     -3.89766717	     12.20667445	    -70.08363412	    -71.30380231	   -135.60904667	     40.70465888	     73.03723309	     25.92674185	    -27.64804193	    -44.25493956	     34.83548670	     94.14290126
      2.03333330	     -3.43032550	      0.31765677	     -0.26539990	      0.35193435	      0.95519762	     -0.04540679	     -1.58252148	     -7.29950027	     -5.08103431	      0.58399494	      0.01019263	      0.49777550	    -11.71996991	     -7.49999987	      1.19264253	     -4.24249066	      1.34499805	      1.23191304	      0.02150094	     -1.21560414	    -12.04176449	     -7.49999987	      1.03470803	     -3.95790881	     12.78379986	    -75.70882218	    -70.64499883	   -140.12765538	     39.80666911	     72.60998792	     26.82079508	    -27.72186741	    -43.62631733	     34.35016450	     94.20387117
      2.05000000	     -3.46522898	      0.30605769	     -0.22038750	      0.35181704	      0.95529447	     -0.04527723	     -1.61083370	     -7.23989760	     -5.07530748	      0.57898193	      0.01010514	      0.56814018	    -11.79947503	     -7.49999987	      1.21771994	     -4.33118098	      1.37703970	      1.23302654	      0.02152037	     -1.22318625	    -12.08528151	     -7.49999987	      1.14699383	     -3.95500958	     12.97354893	    -80.65229221	    -70.62354985	   -144.33797075	     38.65726517	     72.85857751	     27.29028862	    -27.91000390	    -43.53097363	     33.96886654	     94.69221123
      2.06666670	     -3.47663881	      0.29433757	     -0.20837520	      0.35184904	      0.95534167	     -0.04566140	     -1.62960114	     -7.19891407	     -5.05506698	      0.57656226	      0.01006291	      0.56259527	    -12.02131088	     -7.49999987	      1.20683909	     -4.39750649	      1.37833852	      1.21061446	      0.02112921	     -1.17771453	    -12.07774487	     -7.49999987	      1.23425080	     -3.95694174	     13.24566961	    -85.72795399	    -70.17975802	   -148.62080901	     37.78566140	     72.83355255	     27.74534905	    -28.17817098	    -42.88328518	     33.68456135	     94.65353884
      2.08333330	     -3.51513209	      0.31067993	     -0.17640283	      0.35171483	      0.95842386	     -0.04571835	     -1.61057272	     -7.18720878	     -5.05648774	      0.56443315	      0.00985122	      0.54449845	    -12.13774595	     -7.49999987	      1.22692063	     -4.42206751	      1.40140302	      1.16792726	      0.02038418	     -1.23527317	    -12.06510816	     -7.49999987	      1.28249972	     -4.10446240	     13.77290548	    -88.51992412	    -68.84602204	   -150.70695573	     38.12157925	     72.05398169	     28.45363718	    -28.19431993	    -42.50240958	     33.33874622	     94.26212523
      2.10000000	     -3.50529278	      0.31588041	     -0.15808143	      0.35169268	      0.95841972	     -0.04596122	     -1.64655215	     -7.19626000	     -5.02410730	      0.54919664	      0.00958529	      0.52282893	    -12.18774893	     -7.49999987	      1.20696933	     -4.42903662	      1.39470507	      1.12746194	      0.01967792	     -1.25999088	    -11.99672614	     -7.49999987	      1.22308840	     -4.17530342	     13.88929166	    -91.17194187	    -68.08994318	   -153.51487772	     38.27362564	     72.17877863	     28.45243909	    -28.22860239	    -42.90595506	     34.00336826	     94.65774008
      2.11666670	     -3.61338996	      0.35297670	     -0.15073820	      0.35173068	      0.95826057	     -0.04567405	     -1.52841051	     -7.21677079	     -5.02134675	      0.53240190	      0.00929217	      0.43841263	    -12.31022395	     -7.49999987	      1.31343010	     -4.40300155	      1.37964760	      1.10059877	      0.01920907	     -1.29786013	    -11.99326182	     -7.49999987	      1.42837513	     -4.45476797	     13.84314819	    -92.14042606	    -67.63509042	   -154.30133982	     39.02708173	     71.75890885	     28.32388252	    -28.44752777	    -43.07838874	     34.56087992	     93.54928799
